HIERARCHY
ROOT Hips
{
    OFFSET   0.000000   0.000000   0.000000
    CHANNELS 6 Xposition Yposition Zposition Zrotation Xrotation Yrotation
    JOINT Chest
    {
        OFFSET   0.000000   8.007230   0.000000
        CHANNELS 3 Zrotation Xrotation Yrotation
        JOINT Chest2
        {
            OFFSET   0.000000  22.077100   0.000000
            CHANNELS 3 Zrotation Xrotation Yrotation
            JOINT Neck
            {
                OFFSET   0.000000  23.254800   0.000000
                CHANNELS 3 Zrotation Xrotation Yrotation
                JOINT Head
                {
                    OFFSET   0.000010  14.370000   1.956600
                    CHANNELS 3 Zrotation Xrotation Yrotation
                    End Site
                    {
                        OFFSET   0.000000  19.566000   0.000000
                    }
                }
            }
            JOINT LeftCollar
            {
                OFFSET   3.911900  19.017000  -0.467062
                CHANNELS 3 Zrotation Xrotation Yrotation
                JOINT LeftShoulder
                {
                    OFFSET  10.383700   0.000000   0.000000
                    CHANNELS 3 Zrotation Xrotation Yrotation
                    JOINT LeftElbow
                    {
                        OFFSET  26.662100   0.001193   0.000835
                        CHANNELS 3 Zrotation Xrotation Yrotation
                        JOINT LeftWrist
                        {
                            OFFSET  28.869000  -0.000058  -0.000075
                            CHANNELS 3 Zrotation Xrotation Yrotation
                            JOINT LeftFinger0
                            {
                                OFFSET   2.044660  -2.323460   3.252850
                                CHANNELS 3 Zrotation Xrotation Yrotation
                                JOINT LeftFinger01
                                {
                                    OFFSET   3.088130   0.000000   0.000000
                                    CHANNELS 3 Zrotation Xrotation Yrotation
                                    JOINT LeftFinger02
                                    {
                                        OFFSET   2.639450   0.000000   0.000000
                                        CHANNELS 3 Zrotation Xrotation Yrotation
                                        End Site
                                        {
                                            OFFSET   2.582190   0.000000   0.000000
                                        }
                                    }
                                }
                            }
                            JOINT LeftFinger1
                            {
                                OFFSET   8.364480   0.000000   3.252850
                                CHANNELS 3 Zrotation Xrotation Yrotation
                                JOINT LeftFinger11
                                {
                                    OFFSET   4.646920   0.000000   0.000000
                                    CHANNELS 3 Zrotation Xrotation Yrotation
                                    JOINT LeftFinger12
                                    {
                                        OFFSET   2.323460   0.000000   0.000000
                                        CHANNELS 3 Zrotation Xrotation Yrotation
                                        End Site
                                        {
                                            OFFSET   2.273050   0.000000   0.000000
                                        }
                                    }
                                }
                            }
                            JOINT LeftFinger2
                            {
                                OFFSET   8.364490   0.000016   1.078090
                                CHANNELS 3 Zrotation Xrotation Yrotation
                                JOINT LeftFinger21
                                {
                                    OFFSET   5.111620   0.000000   0.000000
                                    CHANNELS 3 Zrotation Xrotation Yrotation
                                    JOINT LeftFinger22
                                    {
                                        OFFSET   2.788150   0.000012   0.000000
                                        CHANNELS 3 Zrotation Xrotation Yrotation
                                        End Site
                                        {
                                            OFFSET   2.727660   0.000000   0.000000
                                        }
                                    }
                                }
                            }
                            JOINT LeftFinger3
                            {
                                OFFSET   7.899780   0.000014  -1.078090
                                CHANNELS 3 Zrotation Xrotation Yrotation
                                JOINT LeftFinger31
                                {
                                    OFFSET   4.646930   0.000000   0.000000
                                    CHANNELS 3 Zrotation Xrotation Yrotation
                                    JOINT LeftFinger32
                                    {
                                        OFFSET   2.323470   0.000000   0.000000
                                        CHANNELS 3 Zrotation Xrotation Yrotation
                                        End Site
                                        {
                                            OFFSET   2.273050   0.000000   0.000000
                                        }
                                    }
                                }
                            }
                            JOINT LeftFinger4
                            {
                                OFFSET   7.435090   0.000000  -3.252850
                                CHANNELS 3 Zrotation Xrotation Yrotation
                                JOINT LeftFinger41
                                {
                                    OFFSET   3.717550   0.000000   0.000000
                                    CHANNELS 3 Zrotation Xrotation Yrotation
                                    JOINT LeftFinger42
                                    {
                                        OFFSET   1.858770   0.000000   0.000000
                                        CHANNELS 3 Zrotation Xrotation Yrotation
                                        End Site
                                        {
                                            OFFSET   1.818440   0.000000   0.000000
                                        }
                                    }
                                }
                            }
                        }
                    }
                }
            }
            JOINT RightCollar
            {
                OFFSET  -3.911900  19.017000  -0.467063
                CHANNELS 3 Zrotation Xrotation Yrotation
                JOINT RightShoulder
                {
                    OFFSET -10.383700   0.000023   0.000000
                    CHANNELS 3 Zrotation Xrotation Yrotation
                    JOINT RightElbow
                    {
                        OFFSET -26.662100   0.001246   0.001011
                        CHANNELS 3 Zrotation Xrotation Yrotation
                        JOINT RightWrist
                        {
                            OFFSET -28.869000  -0.000026  -0.000078
                            CHANNELS 3 Zrotation Xrotation Yrotation
                            JOINT RightFinger0
                            {
                                OFFSET  -2.044660  -2.323490   3.252850
                                CHANNELS 3 Zrotation Xrotation Yrotation
                                JOINT RightFinger01
                                {
                                    OFFSET  -3.088130   0.000000   0.000000
                                    CHANNELS 3 Zrotation Xrotation Yrotation
                                    JOINT RightFinger02
                                    {
                                        OFFSET  -2.639460   0.000000   0.000000
                                        CHANNELS 3 Zrotation Xrotation Yrotation
                                        End Site
                                        {
                                            OFFSET  -2.582190   0.000000   0.000000
                                        }
                                    }
                                }
                            }
                            JOINT RightFinger1
                            {
                                OFFSET  -8.364480   0.000000   3.252850
                                CHANNELS 3 Zrotation Xrotation Yrotation
                                JOINT RightFinger11
                                {
                                    OFFSET  -4.646920   0.000000   0.000000
                                    CHANNELS 3 Zrotation Xrotation Yrotation
                                    JOINT RightFinger12
                                    {
                                        OFFSET  -2.323470   0.000000   0.000000
                                        CHANNELS 3 Zrotation Xrotation Yrotation
                                        End Site
                                        {
                                            OFFSET  -2.273050   0.000000   0.000000
                                        }
                                    }
                                }
                            }
                            JOINT RightFinger2
                            {
                                OFFSET  -8.364480   0.000000   1.078090
                                CHANNELS 3 Zrotation Xrotation Yrotation
                                JOINT RightFinger21
                                {
                                    OFFSET  -5.111620   0.000000   0.000000
                                    CHANNELS 3 Zrotation Xrotation Yrotation
                                    JOINT RightFinger22
                                    {
                                        OFFSET  -2.788160   0.000000   0.000000
                                        CHANNELS 3 Zrotation Xrotation Yrotation
                                        End Site
                                        {
                                            OFFSET  -2.727660   0.000000   0.000000
                                        }
                                    }
                                }
                            }
                            JOINT RightFinger3
                            {
                                OFFSET  -7.899780   0.000000  -1.078090
                                CHANNELS 3 Zrotation Xrotation Yrotation
                                JOINT RightFinger31
                                {
                                    OFFSET  -4.646930   0.000000   0.000000
                                    CHANNELS 3 Zrotation Xrotation Yrotation
                                    JOINT RightFinger32
                                    {
                                        OFFSET  -2.323470   0.000000   0.000000
                                        CHANNELS 3 Zrotation Xrotation Yrotation
                                        End Site
                                        {
                                            OFFSET  -2.273050   0.000000   0.000000
                                        }
                                    }
                                }
                            }
                            JOINT RightFinger4
                            {
                                OFFSET  -7.435090   0.000000  -3.252850
                                CHANNELS 3 Zrotation Xrotation Yrotation
                                JOINT RightFinger41
                                {
                                    OFFSET  -3.717550   0.000000   0.000000
                                    CHANNELS 3 Zrotation Xrotation Yrotation
                                    JOINT RightFinger42
                                    {
                                        OFFSET  -1.858760   0.000000   0.000000
                                        CHANNELS 3 Zrotation Xrotation Yrotation
                                        End Site
                                        {
                                            OFFSET  -1.818440   0.000000   0.000000
                                        }
                                    }
                                }
                            }
                        }
                    }
                }
            }
        }
    }
    JOINT LeftHip
    {
        OFFSET   9.783010   0.000000   0.000000
        CHANNELS 3 Zrotation Xrotation Yrotation
        JOINT LeftKnee
        {
            OFFSET   0.000073 -41.789100   0.001749
            CHANNELS 3 Zrotation Xrotation Yrotation
            JOINT LeftAnkle
            {
                OFFSET   0.000111 -41.133200  -0.000179
                CHANNELS 3 Zrotation Xrotation Yrotation
                JOINT LeftToe
                {
                    OFFSET   0.000000  -6.358960  14.674500
                    CHANNELS 3 Zrotation Xrotation Yrotation
                    End Site
                    {
                        OFFSET   0.000000   0.000000   3.913200
                    }
                }
            }
        }
    }
    JOINT RightHip
    {
        OFFSET  -9.783010   0.000000   0.000000
        CHANNELS 3 Zrotation Xrotation Yrotation
        JOINT RightKnee
        {
            OFFSET   0.000424 -41.789200   0.005205
            CHANNELS 3 Zrotation Xrotation Yrotation
            JOINT RightAnkle
            {
                OFFSET   0.000000 -41.133200  -0.000155
                CHANNELS 3 Zrotation Xrotation Yrotation
                JOINT RightToe
                {
                    OFFSET   0.000000  -6.358960  14.674500
                    CHANNELS 3 Zrotation Xrotation Yrotation
                    End Site
                    {
                        OFFSET   0.000000   0.000000   3.913200
                    }
                }
            }
        }
    }
}
MOTION
Frames: 4
Frame Time:   0.016667
 -0.783868  89.431000  -0.627096  -4.387490 -22.710200  -0.451302   0.978923  12.851300  -1.946560   2.517490  25.657500  -4.293450   3.126190   3.199530  -0.176465   5.204740   6.430110  11.065300  -3.463180  -5.246280   2.022390 -39.752400  18.802500 -65.392500  31.978200  -0.458498 -69.508200  13.823600  27.556400 -20.068900  39.983500  58.381700 -83.850400 -64.918400  -0.040705   0.137293 -36.575600  -0.034382   0.003037 -54.014900  11.038300  -7.824850 -44.821700  -0.000807   0.003466 -33.620600  -0.001602   0.004464 -63.771900  -0.250696   0.170083 -63.973200  -0.188359  -0.020155 -47.945700  -0.080547  -0.118820 -70.095700  -3.342760   1.302290 -70.196900  -0.105815   0.021072 -52.641700  -0.075931  -0.054544 -85.004500 -10.033100   0.923311 -110.114000  -0.000325   0.001553 -81.335100   0.063044  -0.034431   5.366500  -7.298470   9.307730  29.694300  14.232100  69.719700 -36.275300 -13.602800  48.032900  15.642200   7.315190 -11.408900 -40.912300  40.227400  83.963700  30.698800   0.079123  -0.045953  10.349400   0.039859  -0.001398  89.228700   5.000370   0.067161  78.262600   0.000367  -0.012690  58.696900  -0.010426  -0.001642  81.217100   0.050298   0.009398  81.245200   0.001470  -0.003448  60.933900   0.000328   0.000618  86.087500  -4.995940  -0.351404  86.065900  -0.009620   0.003974  64.549400  -0.000136   0.009014  89.765900 -10.006400  -0.040572 110.000000  -0.003428   0.005769  80.000000   0.001418   0.000034   6.143890  23.506600  -0.217976   1.451660   1.385210  15.140600  -3.421980  -2.414510  -2.792900  -0.000000   0.000000   0.000000   6.306700  21.346300  -3.370120  -1.401680   5.900370 -17.636300   1.040370  -5.251150   4.756650  -0.000000   0.000000   0.000000
 -0.803095  89.424400  -0.551449  -4.382210 -22.754400  -0.387170   0.952328  12.809200  -1.922890   2.453910  25.575000  -4.235620   3.097640   3.297970  -0.178319   5.135830   6.629230  11.316400  -3.337190  -5.117650   2.062820 -38.876500  18.906500 -65.668600  33.369300   0.328221 -69.377900  18.759700  32.066500 -24.890400  34.399200  54.550500 -77.341300 -67.792700  -0.157635   0.176131 -38.489900  -0.153348   0.036140 -53.178000  11.005300  -8.049940 -44.162200  -0.042158   0.029707 -33.125600  -0.038732   0.004651 -60.982400   0.671966  -0.304569 -61.150900  -0.150090   0.008644 -45.838800  -0.084839  -0.074209 -69.322900  -3.063710   1.381310 -69.405900  -0.225543   0.023967 -52.054400  -0.126272  -0.114320 -83.926800 -10.106300   1.165530 -110.229000  -0.000300   0.001589 -82.932200   0.142961  -0.078971   5.253860  -7.583200   9.126860  28.929700  14.153100  70.364800 -36.464700 -14.020700  46.973500  19.284300   5.683950 -11.435600 -41.460900  40.991000  84.819200  29.287500   0.088558  -0.049514   9.643730   0.044632  -0.001826  89.506200   5.000400   0.042971  76.195700   0.000161  -0.010160  57.146800  -0.007730  -0.000963  78.931600   0.104409   0.028189  78.931000   0.001395   0.001680  59.198200   0.002977   0.002077  83.251100  -4.975410  -0.596179  83.183000  -0.009787   0.009576  62.387200   0.002607   0.011879  90.711000 -10.016000   0.123671 110.000000  -0.003454   0.005777  80.000000   0.001427   0.000070   6.187040  23.569200  -0.236114   1.446280   1.405720  15.124900  -3.439250  -2.457760  -2.841480   0.000000   0.000000  -0.000000   6.342450  21.408300  -3.405330  -1.389360   5.938600 -17.610100   1.029970  -5.310050   4.685770   0.000000   0.000000   0.000000
 -0.827152  89.418100  -0.474019  -4.377570 -22.801300  -0.320113   0.924527  12.766900  -1.906410   2.389680  25.492200  -4.192540   3.099610   3.392770  -0.182877   5.118000   6.820080  11.578500  -3.235410  -4.957660   2.077030 -37.805400  19.126700 -65.980200  35.281700   0.955620 -69.208000  23.421300  33.948600 -28.718800  35.732900  53.212900 -78.909000 -64.820000  -0.184682   0.214459 -36.510200  -0.186488   0.052568 -52.124900  11.100300  -8.500720 -43.342300  -0.057284   0.034153 -32.496100  -0.050780   0.003040 -59.712800   1.891420  -1.023720 -58.802200  -0.099050   0.008716 -44.303100  -0.062949  -0.045552 -67.755300  -2.490650   1.215250 -67.407600  -0.229629   0.023814 -50.649400  -0.127426  -0.116882 -81.501100 -10.037600   1.587750 -110.048000  -0.000277   0.001624 -81.556800   0.144126  -0.080617   5.124030  -7.849390   8.931390  28.006300  14.117700  71.120700 -36.568400 -14.480900  45.809000  23.628500   4.487730 -11.477300 -41.919200  41.565400  85.514400  27.367300   0.062800  -0.033930   8.683640   0.031873  -0.002267  89.433600   4.990550   0.049551  74.249000  -0.000032  -0.004010  55.686800  -0.002199  -0.000773  76.690700   0.067471   0.015816  76.690400   0.001359   0.003766  57.517800   0.004064   0.004660  80.533500  -4.904390  -0.815279  80.487800  -0.006644   0.012585  60.365900   0.002540   0.012599  90.127900 -10.013800   0.022968 110.000000  -0.003479   0.005795  80.000000   0.001420   0.000116   6.233710  23.637200  -0.248929   1.436420   1.423910  15.098300  -3.455120  -2.502100  -2.887290  -0.000000   0.000000  -0.000000   6.391390  21.478700  -3.417360  -1.387080   5.975410 -17.613000   1.023780  -5.371200   4.612400  -0.000000   0.000000   0.000000
 -0.852826  89.414300  -0.396237  -4.372210 -22.850700  -0.253530   0.892846  12.722300  -1.890480   2.317440  25.404800  -4.149620   3.110190   3.488620  -0.189434   5.162400   7.011940  11.828500  -3.147770  -4.785930   2.078780 -36.797200  19.375500 -66.280300  37.069300   1.426900 -69.051600  27.157400  34.671300 -31.630300  36.832400  52.296100 -80.190000 -60.475900  -0.188546   0.235285 -33.617100  -0.191223   0.059090 -51.077100  11.195600  -8.908730 -42.525600  -0.061114   0.034788 -31.862800  -0.052993   0.000479 -58.439200   2.808860  -1.706560 -56.948600  -0.049020   0.008726 -43.040000  -0.032474  -0.023084 -64.968300  -1.590810   0.722428 -64.590700  -0.230213   0.022746 -48.536900  -0.127590  -0.117248 -77.899800  -9.855900   2.175970 -108.783000  -0.000251   0.001659 -78.177900   0.144292  -0.080852   4.983990  -8.107070   8.725550  27.150000  14.023400  71.887200 -36.622000 -14.840600  44.684700  27.809600   3.495780 -11.484800 -42.376000  42.139500  86.191900  25.518300   0.031395  -0.014887   7.759170   0.015996  -0.002698  88.925000   4.980690   0.095608  72.375500  -0.000209   0.003372  54.281600   0.003494  -0.000451  74.620500   0.030533   0.003443  74.620800   0.001354   0.005628  55.965600   0.004252   0.007554  78.011500  -4.850920  -1.021140  78.054900  -0.002989   0.014740  58.541200   0.002218   0.012702  88.611600 -10.002700  -0.239117 110.000000  -0.003507   0.005814  80.000000   0.001413   0.000159   6.277340  23.709300  -0.256694   1.424360   1.443350  15.066600  -3.469330  -2.549860  -2.931120   0.000000   0.000000   0.000000   6.443270  21.556000  -3.420670  -1.387840   6.010190 -17.625600   1.018370  -5.435000   4.543100   0.000000   0.000000   0.000000
